<svg xmlns="http://www.w3.org/2000/svg" version="1.1" xmlns:xlink="http://www.w3.org/1999/xlink" xmlns:svgjs="http://svgjs.dev/svgjs" width="100%" height="100%" viewBox="0 0 1000 600"><rect width="1000" height="600" x="0" y="0" fill="#f4a950"/><g><rect width="333.3333333333333" height="333.3333333333333" rx="13.333333333333334" ry="13.333333333333334" y="77.77780045403293" fill="#f4a950" transform="matrix(2.25000013732911,0,0,2.25000013732911,0,-250.00003738403575)" x="55.555564880371094"/><path d="M203.8110224431051 319.44445800781193L121.22165666315823 319.44445800781193Q118.15389921332171 319.44445800781193 115.93977861909187 317.33704202053286Q113.72565802486203 315.2296260332539 113.72565802486203 311.9484593695157L113.72565802486203 311.9484593695157L113.72565802486203 176.94045542497082Q113.72565802486203 173.8460218233966 115.93977861909187 171.65857738090443Q118.15389921332171 169.4444567866746 121.22165666315823 169.4444567866746L121.22165666315823 169.4444567866746Q124.28941411299476 169.4444567866746 126.5035347072246 171.65857738090443Q128.71765530145444 173.8460218233966 128.71765530145444 176.94045542497082L128.71765530145444 176.94045542497082L128.71765530145444 305.22606913161303L203.8110224431051 305.22606913161303Q206.8787798929416 305.22606913161303 209.09290048717148 307.2534566636789Q211.3070210814013 309.2541680440071 211.3070210814013 312.3486016455813L211.3070210814013 312.3486016455813Q211.3070210814013 315.4163590954179 209.09290048717148 317.4170704757461Q206.8787798929416 319.44445800781193 203.8110224431051 319.44445800781193L203.8110224431051 319.44445800781193ZM265.83307523327835 319.44445800781193L265.83307523327835 319.44445800781193Q261.03136792049077 319.44445800781193 258.9239519332117 314.64275069502435L258.9239519332117 314.64275069502435L201.89033951799004 181.15528739952885Q199.78292353071103 175.76670474851164 201.59690184887523 172.61891884346198Q203.41088016703944 169.4444567866746 208.02585441766308 169.4444567866746L208.02585441766308 169.4444567866746Q212.8275617304507 169.4444567866746 214.9349777177297 174.2461640994622L214.9349777177297 174.2461640994622L267.9671673722951 301.011237157055L263.72565924599934 301.011237157055L316.54443968666305 174.61963022379013Q317.6915142113845 171.73860583611759 319.42546407433554 170.59153131139607Q321.1594139372867 169.4444567866746 324.04043832495927 169.4444567866746L324.04043832495927 169.4444567866746Q328.4686795134189 169.4444567866746 329.9892201624683 172.80565190562595Q331.53643696325537 176.16684702457724 329.80248710030435 180.38167899913526L329.80248710030435 180.38167899913526L272.555465471181 314.64275069502435Q271.4083909464595 317.33704202053286 269.67444108350844 318.37741193830357Q267.9671673722951 319.44445800781193 265.83307523327835 319.44445800781193Z " fill="#111827" transform="matrix(2.25000013732911,0,0,2.25000013732911,0,-250.00003738403575)"/><path d="MNaN 244.4444580078119 " fill="#f4a950" transform="matrix(2.25000013732911,0,0,2.25000013732911,0,-250.00003738403575)"/></g></svg>